<?xml version="1.0" standalone="no"?>
<!DOCTYPE svg PUBLIC "-//W3C//DTD SVG 20010904//EN"
 "http://www.w3.org/TR/2001/REC-SVG-20010904/DTD/svg10.dtd">
<svg version="1.0" xmlns="http://www.w3.org/2000/svg"
 width="512.000000pt" height="512.000000pt" viewBox="0 0 512.000000 512.000000"
 preserveAspectRatio="xMidYMid meet">

<g transform="translate(0.000000,512.000000) scale(0.100000,-0.100000)"
fill="#000000" stroke="none">
<path d="M1482 5109 c-142 -28 -267 -152 -297 -297 -22 -100 -22 -4404 0
-4504 31 -149 155 -269 305 -298 72 -14 2068 -14 2140 0 150 29 274 149 305
298 22 100 22 4404 0 4504 -31 149 -155 269 -305 298 -65 12 -2085 12 -2148
-1z m2208 -75 c76 -36 131 -89 168 -159 l27 -50 0 -2265 0 -2265 -27 -50 c-37
-70 -92 -123 -168 -159 l-65 -31 -1065 0 -1065 0 -65 31 c-80 38 -134 91 -169
164 l-26 55 0 2255 0 2255 26 55 c47 99 147 174 254 190 27 4 514 7 1080 6
l1030 -1 65 -31z"/>
<path d="M1546 4889 c-15 -17 -26 -43 -26 -59 0 -16 11 -42 26 -59 21 -26 33
-31 68 -31 57 0 91 34 91 92 0 83 -105 121 -159 57z m108 -10 c35 -28 33 -73
-6 -102 -24 -18 -30 -18 -57 -7 -50 20 -55 95 -9 118 33 16 42 14 72 -9z"/>
<path d="M1796 4868 c-9 -12 -16 -29 -16 -38 0 -9 7 -26 16 -38 23 -34 83 -27
104 11 13 24 13 30 0 55 -21 37 -81 44 -104 10z m72 -10 c17 -17 15 -43 -4
-59 -31 -26 -70 25 -44 56 15 18 32 19 48 3z"/>
<path d="M2292 4864 c-28 -19 -28 -49 0 -68 19 -13 62 -16 268 -16 206 0 249
3 268 16 12 8 22 24 22 34 0 10 -10 26 -22 34 -19 13 -62 16 -268 16 -206 0
-249 -3 -268 -16z m523 -34 c0 -13 -36 -15 -249 -18 -145 -1 -254 2 -259 7
-27 27 10 31 256 29 216 -3 252 -5 252 -18z"/>
<path d="M1330 2560 l0 -1970 1230 0 1230 0 0 1970 0 1970 -1230 0 -1230 0 0
-1970z m2410 0 l0 -1910 -1180 0 -1180 0 0 1910 0 1910 1180 0 1180 0 0 -1910z"/>
<path d="M2343 505 c-47 -29 -83 -92 -83 -146 1 -49 32 -112 71 -140 33 -23
39 -24 229 -24 190 0 196 1 229 24 39 28 70 91 71 140 0 55 -36 118 -84 146
-41 24 -49 25 -217 25 -168 0 -176 -1 -216 -25z m408 -48 c52 -35 68 -111 34
-163 -30 -47 -72 -56 -241 -52 -172 3 -198 13 -221 79 -15 47 -6 84 28 119 38
37 46 38 224 37 125 -2 154 -5 176 -20z"/>
</g>
</svg>
